<svg width="364" height="126" viewBox="0 0 364 126" fill="none" xmlns="http://www.w3.org/2000/svg">
<rect width="364" height="126" fill="white"/>
<path d="M99.3 49.8201L96.14 51.8701L92.14 49.8701L90.41 49L93.41 47L79.76 40.59L76.45 42.66L72.45 40.66L70.72 39.81L73.82 37.7601L68.76 35.42L33 52.66L41.08 56.66L48.45 60.33L48.74 69.83L48.84 70.8301C50.9422 70.8217 53.0354 71.1044 55.06 71.6701L55.01 69.4601L51.79 68.4601C51.9378 67.5276 52.1585 66.6081 52.45 65.7101L55.77 66.3L57.77 62.6801L55.46 60.2401C56.0671 59.4671 56.736 58.7447 57.46 58.08L60.02 60.25L63.55 58.1301L62.77 54.83C63.8025 54.4427 64.8664 54.1449 65.95 53.94L67.02 57.1501H71.13L72.18 53.94C73.0319 54.0975 73.8709 54.3181 74.69 54.6001L74.06 57.91L77.67 59.91L80.13 57.6201C80.8657 58.2343 81.5543 58.9029 82.19 59.6201L80 62.1801L82.12 65.69L85.4 64.95C85.7402 65.8335 86.0077 66.7431 86.2 67.67L83.03 68.7901L83.1 71.59C85.0042 71.0975 86.9632 70.8488 88.93 70.8501V69.8501V60.66L103.93 52.05L99.3 49.8201ZM87.3 48.44L83.13 51.14L79.13 49.14L77.4 48.2701L82.99 44.58L88.61 47.58L87.3 48.44Z" fill="#12181E"/>
<path d="M88.9614 73.14V79.76H88.6914L88.9314 73.14H88.9614Z" fill="#27AC1F"/>
<path d="M88.9316 73.14L88.6916 79.76C85.9051 79.8036 83.1731 80.5392 80.7415 81.9008C78.3099 83.2623 76.2549 85.2071 74.7616 87.56C73.8895 88.8849 73.2157 90.3302 72.7616 91.85H65.0516C64.5566 90.1865 63.8042 88.6107 62.8216 87.18C61.2869 84.9043 59.219 83.0385 56.7979 81.7452C54.3769 80.4519 51.6764 79.7704 48.9316 79.76L48.8516 76.39V73.14C50.9501 73.1374 53.0392 73.42 55.0616 73.98C60.832 75.5667 65.7832 79.2882 68.9116 84.39C72.1068 79.1877 77.1923 75.4246 83.1016 73.89C85.0054 73.3948 86.9644 73.1428 88.9316 73.14Z" fill="#27AC1F"/>
<path d="M48.9316 79.76H48.8516V76.39L48.9316 79.76Z" fill="#27AC1F"/>
<path d="M41.0717 76.66C40.7243 76.66 40.3911 76.522 40.1454 76.2763C39.8997 76.0306 39.7617 75.6975 39.7617 75.35V56.25C39.7904 55.9211 39.9414 55.6148 40.1848 55.3917C40.4283 55.1686 40.7465 55.0448 41.0767 55.0448C41.4069 55.0448 41.7252 55.1686 41.9686 55.3917C42.212 55.6148 42.363 55.9211 42.3917 56.25V75.39C42.3788 75.7314 42.234 76.0544 41.9879 76.2912C41.7417 76.5281 41.4133 76.6603 41.0717 76.66Z" fill="#12181E"/>
<path d="M96.1809 40.5499L94.8509 41.4099L90.6909 44.0999L86.6909 42.0999L84.9609 41.2299L90.5509 37.5399L96.1809 40.5499Z" fill="#12181E"/>
<path d="M113.281 36.99L111.951 37.85L107.781 40.53L103.781 38.53L102.051 37.66L107.651 33.97L113.281 36.99Z" fill="#12181E"/>
<path d="M89.4409 34.44L88.1109 35.3L83.9409 37.9901L79.9409 35.98L78.2109 35.12L83.8109 31.42L89.4409 34.44Z" fill="#12181E"/>
<path d="M103.671 34.02L102.341 34.88L98.1714 37.57L94.1714 35.56L92.4414 34.7L98.0414 31L103.671 34.02Z" fill="#12181E"/>
<path d="M107.671 44.13L106.341 44.99L102.171 47.68L98.1714 45.67L96.4414 44.81L102.041 41.11L107.671 44.13Z" fill="#12181E"/>
<path d="M58.3516 72.16C58.3516 69.2665 59.501 66.4915 61.547 64.4455C63.593 62.3994 66.3681 61.25 69.2616 61.25C72.1551 61.25 74.9301 62.3994 76.9761 64.4455C79.0221 66.4915 80.1716 69.2665 80.1716 72.16" stroke="#27AC1F" stroke-width="1.44" stroke-miterlimit="10"/>
<path d="M101 94.98H115V80.98H101V94.98Z" fill="black"/>
<path d="M124.852 93.14C124.105 93.14 123.41 93.0187 122.766 92.776C122.131 92.524 121.576 92.174 121.1 91.726C120.633 91.2687 120.269 90.732 120.008 90.116C119.747 89.5 119.616 88.828 119.616 88.1C119.616 87.372 119.747 86.7 120.008 86.084C120.269 85.468 120.638 84.936 121.114 84.488C121.59 84.0307 122.145 83.6807 122.78 83.438C123.415 83.186 124.11 83.06 124.866 83.06C125.669 83.06 126.401 83.2 127.064 83.48C127.727 83.7507 128.287 84.1567 128.744 84.698L127.568 85.804C127.213 85.4213 126.817 85.1367 126.378 84.95C125.939 84.754 125.463 84.656 124.95 84.656C124.437 84.656 123.965 84.74 123.536 84.908C123.116 85.076 122.747 85.314 122.43 85.622C122.122 85.93 121.879 86.294 121.702 86.714C121.534 87.134 121.45 87.596 121.45 88.1C121.45 88.604 121.534 89.066 121.702 89.486C121.879 89.906 122.122 90.27 122.43 90.578C122.747 90.886 123.116 91.124 123.536 91.292C123.965 91.46 124.437 91.544 124.95 91.544C125.463 91.544 125.939 91.4507 126.378 91.264C126.817 91.068 127.213 90.774 127.568 90.382L128.744 91.502C128.287 92.034 127.727 92.44 127.064 92.72C126.401 93 125.664 93.14 124.852 93.14ZM130.32 93V85.524H131.986V87.582L131.79 86.98C132.014 86.476 132.364 86.0933 132.84 85.832C133.325 85.5707 133.927 85.44 134.646 85.44V87.106C134.571 87.0873 134.501 87.078 134.436 87.078C134.371 87.0687 134.305 87.064 134.24 87.064C133.577 87.064 133.05 87.26 132.658 87.652C132.266 88.0347 132.07 88.6087 132.07 89.374V93H130.32ZM140.203 93V91.488L140.105 91.166V88.52C140.105 88.0067 139.951 87.61 139.643 87.33C139.335 87.0407 138.869 86.896 138.243 86.896C137.823 86.896 137.408 86.9613 136.997 87.092C136.596 87.2227 136.255 87.4047 135.975 87.638L135.289 86.364C135.691 86.056 136.167 85.8273 136.717 85.678C137.277 85.5193 137.856 85.44 138.453 85.44C139.536 85.44 140.371 85.7013 140.959 86.224C141.557 86.7373 141.855 87.5353 141.855 88.618V93H140.203ZM137.851 93.098C137.291 93.098 136.801 93.0047 136.381 92.818C135.961 92.622 135.635 92.356 135.401 92.02C135.177 91.6747 135.065 91.2873 135.065 90.858C135.065 90.438 135.163 90.06 135.359 89.724C135.565 89.388 135.896 89.122 136.353 88.926C136.811 88.73 137.417 88.632 138.173 88.632H140.343V89.794H138.299C137.702 89.794 137.301 89.892 137.095 90.088C136.89 90.2747 136.787 90.508 136.787 90.788C136.787 91.1053 136.913 91.3573 137.165 91.544C137.417 91.7307 137.767 91.824 138.215 91.824C138.645 91.824 139.027 91.726 139.363 91.53C139.709 91.334 139.956 91.0447 140.105 90.662L140.399 91.712C140.231 92.1507 139.928 92.4913 139.489 92.734C139.06 92.9767 138.514 93.098 137.851 93.098ZM144.339 93V85.104C144.339 84.32 144.568 83.6947 145.025 83.228C145.492 82.752 146.154 82.514 147.013 82.514C147.321 82.514 147.61 82.5467 147.881 82.612C148.161 82.6773 148.394 82.78 148.581 82.92L148.105 84.236C147.974 84.1333 147.825 84.0587 147.657 84.012C147.489 83.956 147.316 83.928 147.139 83.928C146.775 83.928 146.5 84.0307 146.313 84.236C146.126 84.432 146.033 84.7307 146.033 85.132V85.972L146.089 86.756V93H144.339ZM143.107 86.98V85.58H148.091V86.98H143.107ZM152.083 93.098C151.262 93.098 150.627 92.888 150.179 92.468C149.731 92.0387 149.507 91.4087 149.507 90.578V83.872H151.257V90.536C151.257 90.8907 151.346 91.166 151.523 91.362C151.71 91.558 151.966 91.656 152.293 91.656C152.685 91.656 153.012 91.5533 153.273 91.348L153.763 92.594C153.558 92.762 153.306 92.888 153.007 92.972C152.708 93.056 152.4 93.098 152.083 93.098ZM148.275 86.98V85.58H153.259V86.98H148.275ZM155.203 93V85.524H156.953V93H155.203ZM156.085 84.292C155.758 84.292 155.487 84.1893 155.273 83.984C155.067 83.7787 154.965 83.5313 154.965 83.242C154.965 82.9433 155.067 82.696 155.273 82.5C155.487 82.2947 155.758 82.192 156.085 82.192C156.411 82.192 156.677 82.29 156.883 82.486C157.097 82.6727 157.205 82.9107 157.205 83.2C157.205 83.508 157.102 83.7693 156.897 83.984C156.691 84.1893 156.421 84.292 156.085 84.292ZM163.492 85.44C164.089 85.44 164.621 85.5567 165.088 85.79C165.564 86.0233 165.937 86.3827 166.208 86.868C166.478 87.344 166.614 87.96 166.614 88.716V93H164.864V88.94C164.864 88.2773 164.705 87.7827 164.388 87.456C164.08 87.1293 163.646 86.966 163.086 86.966C162.675 86.966 162.311 87.05 161.994 87.218C161.676 87.386 161.429 87.638 161.252 87.974C161.084 88.3007 161 88.716 161 89.22V93H159.25V85.524H160.916V87.54L160.622 86.924C160.883 86.448 161.261 86.084 161.756 85.832C162.26 85.5707 162.838 85.44 163.492 85.44ZM172.235 95.814C171.545 95.814 170.868 95.7207 170.205 95.534C169.552 95.3567 169.015 95.0953 168.595 94.75L169.379 93.434C169.706 93.7047 170.117 93.9193 170.611 94.078C171.115 94.246 171.624 94.33 172.137 94.33C172.959 94.33 173.561 94.1387 173.943 93.756C174.326 93.3827 174.517 92.818 174.517 92.062V90.732L174.657 89.038L174.601 87.344V85.524H176.267V91.866C176.267 93.2193 175.922 94.2133 175.231 94.848C174.541 95.492 173.542 95.814 172.235 95.814ZM172.011 92.664C171.302 92.664 170.658 92.5147 170.079 92.216C169.51 91.908 169.057 91.4833 168.721 90.942C168.395 90.4007 168.231 89.766 168.231 89.038C168.231 88.3193 168.395 87.6893 168.721 87.148C169.057 86.6067 169.51 86.1867 170.079 85.888C170.658 85.5893 171.302 85.44 172.011 85.44C172.646 85.44 173.215 85.566 173.719 85.818C174.223 86.07 174.625 86.462 174.923 86.994C175.231 87.526 175.385 88.2073 175.385 89.038C175.385 89.8687 175.231 90.5547 174.923 91.096C174.625 91.628 174.223 92.0247 173.719 92.286C173.215 92.538 172.646 92.664 172.011 92.664ZM172.277 91.18C172.716 91.18 173.108 91.0913 173.453 90.914C173.799 90.7273 174.065 90.4753 174.251 90.158C174.447 89.8313 174.545 89.458 174.545 89.038C174.545 88.618 174.447 88.2493 174.251 87.932C174.065 87.6053 173.799 87.358 173.453 87.19C173.108 87.0127 172.716 86.924 172.277 86.924C171.839 86.924 171.442 87.0127 171.087 87.19C170.742 87.358 170.471 87.6053 170.275 87.932C170.089 88.2493 169.995 88.618 169.995 89.038C169.995 89.458 170.089 89.8313 170.275 90.158C170.471 90.4753 170.742 90.7273 171.087 90.914C171.442 91.0913 171.839 91.18 172.277 91.18ZM184.271 87.708H189.157V89.248H184.271V87.708ZM184.425 93H182.605V83.2H189.759V84.726H184.425V93ZM194.31 93.098C193.675 93.098 193.115 92.9813 192.63 92.748C192.145 92.5053 191.767 92.1413 191.496 91.656C191.225 91.1613 191.09 90.5407 191.09 89.794V85.524H192.84V89.556C192.84 90.228 192.989 90.732 193.288 91.068C193.596 91.3947 194.03 91.558 194.59 91.558C195.001 91.558 195.355 91.474 195.654 91.306C195.962 91.138 196.2 90.886 196.368 90.55C196.545 90.214 196.634 89.7987 196.634 89.304V85.524H198.384V93H196.718V90.984L197.012 91.6C196.76 92.0853 196.391 92.4587 195.906 92.72C195.421 92.972 194.889 93.098 194.31 93.098ZM203.489 93.098C202.668 93.098 202.033 92.888 201.585 92.468C201.137 92.0387 200.913 91.4087 200.913 90.578V83.872H202.663V90.536C202.663 90.8907 202.752 91.166 202.929 91.362C203.116 91.558 203.373 91.656 203.699 91.656C204.091 91.656 204.418 91.5533 204.679 91.348L205.169 92.594C204.964 92.762 204.712 92.888 204.413 92.972C204.115 93.056 203.807 93.098 203.489 93.098ZM199.681 86.98V85.58H204.665V86.98H199.681ZM209.773 93.098C209.138 93.098 208.578 92.9813 208.093 92.748C207.608 92.5053 207.23 92.1413 206.959 91.656C206.688 91.1613 206.553 90.5407 206.553 89.794V85.524H208.303V89.556C208.303 90.228 208.452 90.732 208.751 91.068C209.059 91.3947 209.493 91.558 210.053 91.558C210.464 91.558 210.818 91.474 211.117 91.306C211.425 91.138 211.663 90.886 211.831 90.55C212.008 90.214 212.097 89.7987 212.097 89.304V85.524H213.847V93H212.181V90.984L212.475 91.6C212.223 92.0853 211.854 92.4587 211.369 92.72C210.884 92.972 210.352 93.098 209.773 93.098ZM216.138 93V85.524H217.804V87.582L217.608 86.98C217.832 86.476 218.182 86.0933 218.658 85.832C219.144 85.5707 219.746 85.44 220.464 85.44V87.106C220.39 87.0873 220.32 87.078 220.254 87.078C220.189 87.0687 220.124 87.064 220.058 87.064C219.396 87.064 218.868 87.26 218.476 87.652C218.084 88.0347 217.888 88.6087 217.888 89.374V93H216.138ZM225.394 93.098C224.564 93.098 223.836 92.9347 223.21 92.608C222.594 92.272 222.114 91.8147 221.768 91.236C221.432 90.6573 221.264 89.9993 221.264 89.262C221.264 88.5153 221.428 87.8573 221.754 87.288C222.09 86.7093 222.548 86.2567 223.126 85.93C223.714 85.6033 224.382 85.44 225.128 85.44C225.856 85.44 226.505 85.5987 227.074 85.916C227.644 86.2333 228.092 86.6813 228.418 87.26C228.745 87.8387 228.908 88.52 228.908 89.304C228.908 89.3787 228.904 89.4627 228.894 89.556C228.894 89.6493 228.89 89.738 228.88 89.822H222.65V88.66H227.956L227.27 89.024C227.28 88.5947 227.191 88.2167 227.004 87.89C226.818 87.5633 226.561 87.3067 226.234 87.12C225.917 86.9333 225.548 86.84 225.128 86.84C224.699 86.84 224.321 86.9333 223.994 87.12C223.677 87.3067 223.425 87.568 223.238 87.904C223.061 88.2307 222.972 88.618 222.972 89.066V89.346C222.972 89.794 223.075 90.1907 223.28 90.536C223.486 90.8813 223.775 91.1473 224.148 91.334C224.522 91.5207 224.951 91.614 225.436 91.614C225.856 91.614 226.234 91.5487 226.57 91.418C226.906 91.2873 227.205 91.082 227.466 90.802L228.404 91.88C228.068 92.272 227.644 92.5753 227.13 92.79C226.626 92.9953 226.048 93.098 225.394 93.098ZM237.665 93.14C236.899 93.14 236.167 93.0327 235.467 92.818C234.767 92.594 234.211 92.3093 233.801 91.964L234.431 90.55C234.823 90.858 235.308 91.1147 235.887 91.32C236.465 91.5253 237.058 91.628 237.665 91.628C238.178 91.628 238.593 91.572 238.911 91.46C239.228 91.348 239.461 91.1987 239.611 91.012C239.76 90.816 239.835 90.5967 239.835 90.354C239.835 90.0553 239.727 89.8173 239.513 89.64C239.298 89.4533 239.018 89.3087 238.673 89.206C238.337 89.094 237.959 88.9913 237.539 88.898C237.128 88.8047 236.713 88.6973 236.293 88.576C235.882 88.4453 235.504 88.282 235.159 88.086C234.823 87.8807 234.547 87.61 234.333 87.274C234.118 86.938 234.011 86.5087 234.011 85.986C234.011 85.454 234.151 84.9687 234.431 84.53C234.72 84.082 235.154 83.7273 235.733 83.466C236.321 83.1953 237.063 83.06 237.959 83.06C238.547 83.06 239.13 83.1347 239.709 83.284C240.287 83.4333 240.791 83.648 241.221 83.928L240.647 85.342C240.208 85.0807 239.755 84.8893 239.289 84.768C238.822 84.6373 238.374 84.572 237.945 84.572C237.441 84.572 237.03 84.6327 236.713 84.754C236.405 84.8753 236.176 85.034 236.027 85.23C235.887 85.426 235.817 85.65 235.817 85.902C235.817 86.2007 235.919 86.4433 236.125 86.63C236.339 86.8073 236.615 86.9473 236.951 87.05C237.296 87.1527 237.679 87.2553 238.099 87.358C238.519 87.4513 238.934 87.5587 239.345 87.68C239.765 87.8013 240.143 87.96 240.479 88.156C240.824 88.352 241.099 88.618 241.305 88.954C241.519 89.29 241.627 89.7147 241.627 90.228C241.627 90.7507 241.482 91.236 241.193 91.684C240.913 92.1227 240.479 92.4773 239.891 92.748C239.303 93.0093 238.561 93.14 237.665 93.14ZM246.427 93.098C245.793 93.098 245.233 92.9813 244.747 92.748C244.262 92.5053 243.884 92.1413 243.613 91.656C243.343 91.1613 243.207 90.5407 243.207 89.794V85.524H244.957V89.556C244.957 90.228 245.107 90.732 245.405 91.068C245.713 91.3947 246.147 91.558 246.707 91.558C247.118 91.558 247.473 91.474 247.771 91.306C248.079 91.138 248.317 90.886 248.485 90.55C248.663 90.214 248.751 89.7987 248.751 89.304V85.524H250.501V93H248.835V90.984L249.129 91.6C248.877 92.0853 248.509 92.4587 248.023 92.72C247.538 92.972 247.006 93.098 246.427 93.098ZM256.223 93.098C255.439 93.098 254.739 92.9347 254.123 92.608C253.516 92.272 253.04 91.8147 252.695 91.236C252.349 90.6573 252.177 89.9993 252.177 89.262C252.177 88.5153 252.349 87.8573 252.695 87.288C253.04 86.7093 253.516 86.2567 254.123 85.93C254.739 85.6033 255.439 85.44 256.223 85.44C256.951 85.44 257.59 85.5893 258.141 85.888C258.701 86.1773 259.125 86.6067 259.415 87.176L258.071 87.96C257.847 87.6053 257.571 87.344 257.245 87.176C256.927 87.008 256.582 86.924 256.209 86.924C255.779 86.924 255.392 87.0173 255.047 87.204C254.701 87.3907 254.431 87.6613 254.235 88.016C254.039 88.3613 253.941 88.7767 253.941 89.262C253.941 89.7473 254.039 90.1673 254.235 90.522C254.431 90.8673 254.701 91.1333 255.047 91.32C255.392 91.5067 255.779 91.6 256.209 91.6C256.582 91.6 256.927 91.516 257.245 91.348C257.571 91.18 257.847 90.9187 258.071 90.564L259.415 91.348C259.125 91.908 258.701 92.342 258.141 92.65C257.59 92.9487 256.951 93.098 256.223 93.098ZM264.248 93.098C263.464 93.098 262.764 92.9347 262.148 92.608C261.541 92.272 261.065 91.8147 260.72 91.236C260.375 90.6573 260.202 89.9993 260.202 89.262C260.202 88.5153 260.375 87.8573 260.72 87.288C261.065 86.7093 261.541 86.2567 262.148 85.93C262.764 85.6033 263.464 85.44 264.248 85.44C264.976 85.44 265.615 85.5893 266.166 85.888C266.726 86.1773 267.151 86.6067 267.44 87.176L266.096 87.96C265.872 87.6053 265.597 87.344 265.27 87.176C264.953 87.008 264.607 86.924 264.234 86.924C263.805 86.924 263.417 87.0173 263.072 87.204C262.727 87.3907 262.456 87.6613 262.26 88.016C262.064 88.3613 261.966 88.7767 261.966 89.262C261.966 89.7473 262.064 90.1673 262.26 90.522C262.456 90.8673 262.727 91.1333 263.072 91.32C263.417 91.5067 263.805 91.6 264.234 91.6C264.607 91.6 264.953 91.516 265.27 91.348C265.597 91.18 265.872 90.9187 266.096 90.564L267.44 91.348C267.151 91.908 266.726 92.342 266.166 92.65C265.615 92.9487 264.976 93.098 264.248 93.098ZM272.357 93.098C271.527 93.098 270.799 92.9347 270.173 92.608C269.557 92.272 269.077 91.8147 268.731 91.236C268.395 90.6573 268.227 89.9993 268.227 89.262C268.227 88.5153 268.391 87.8573 268.717 87.288C269.053 86.7093 269.511 86.2567 270.089 85.93C270.677 85.6033 271.345 85.44 272.091 85.44C272.819 85.44 273.468 85.5987 274.037 85.916C274.607 86.2333 275.055 86.6813 275.381 87.26C275.708 87.8387 275.871 88.52 275.871 89.304C275.871 89.3787 275.867 89.4627 275.857 89.556C275.857 89.6493 275.853 89.738 275.843 89.822H269.613V88.66H274.919L274.233 89.024C274.243 88.5947 274.154 88.2167 273.967 87.89C273.781 87.5633 273.524 87.3067 273.197 87.12C272.88 86.9333 272.511 86.84 272.091 86.84C271.662 86.84 271.284 86.9333 270.957 87.12C270.64 87.3067 270.388 87.568 270.201 87.904C270.024 88.2307 269.935 88.618 269.935 89.066V89.346C269.935 89.794 270.038 90.1907 270.243 90.536C270.449 90.8813 270.738 91.1473 271.111 91.334C271.485 91.5207 271.914 91.614 272.399 91.614C272.819 91.614 273.197 91.5487 273.533 91.418C273.869 91.2873 274.168 91.082 274.429 90.802L275.367 91.88C275.031 92.272 274.607 92.5753 274.093 92.79C273.589 92.9953 273.011 93.098 272.357 93.098ZM279.862 93.098C279.237 93.098 278.635 93.0187 278.056 92.86C277.487 92.692 277.034 92.4913 276.698 92.258L277.37 90.928C277.706 91.1427 278.108 91.32 278.574 91.46C279.041 91.6 279.508 91.67 279.974 91.67C280.525 91.67 280.922 91.5953 281.164 91.446C281.416 91.2967 281.542 91.096 281.542 90.844C281.542 90.6387 281.458 90.4847 281.29 90.382C281.122 90.27 280.903 90.186 280.632 90.13C280.362 90.074 280.058 90.0227 279.722 89.976C279.396 89.9293 279.064 89.8687 278.728 89.794C278.402 89.71 278.103 89.5933 277.832 89.444C277.562 89.2853 277.342 89.0753 277.174 88.814C277.006 88.5527 276.922 88.2073 276.922 87.778C276.922 87.302 277.058 86.8913 277.328 86.546C277.599 86.1913 277.977 85.9207 278.462 85.734C278.957 85.538 279.54 85.44 280.212 85.44C280.716 85.44 281.225 85.496 281.738 85.608C282.252 85.72 282.676 85.8787 283.012 86.084L282.34 87.414C281.986 87.1993 281.626 87.0547 281.262 86.98C280.908 86.896 280.553 86.854 280.198 86.854C279.666 86.854 279.27 86.9333 279.008 87.092C278.756 87.2507 278.63 87.4513 278.63 87.694C278.63 87.918 278.714 88.086 278.882 88.198C279.05 88.31 279.27 88.3987 279.54 88.464C279.811 88.5293 280.11 88.5853 280.436 88.632C280.772 88.6693 281.104 88.73 281.43 88.814C281.757 88.898 282.056 89.0147 282.326 89.164C282.606 89.304 282.83 89.5047 282.998 89.766C283.166 90.0273 283.25 90.368 283.25 90.788C283.25 91.2547 283.11 91.6607 282.83 92.006C282.56 92.3513 282.172 92.622 281.668 92.818C281.164 93.0047 280.562 93.098 279.862 93.098ZM287.067 93.098C286.442 93.098 285.84 93.0187 285.261 92.86C284.692 92.692 284.239 92.4913 283.903 92.258L284.575 90.928C284.911 91.1427 285.313 91.32 285.779 91.46C286.246 91.6 286.713 91.67 287.179 91.67C287.73 91.67 288.127 91.5953 288.369 91.446C288.621 91.2967 288.747 91.096 288.747 90.844C288.747 90.6387 288.663 90.4847 288.495 90.382C288.327 90.27 288.108 90.186 287.837 90.13C287.567 90.074 287.263 90.0227 286.927 89.976C286.601 89.9293 286.269 89.8687 285.933 89.794C285.607 89.71 285.308 89.5933 285.037 89.444C284.767 89.2853 284.547 89.0753 284.379 88.814C284.211 88.5527 284.127 88.2073 284.127 87.778C284.127 87.302 284.263 86.8913 284.533 86.546C284.804 86.1913 285.182 85.9207 285.667 85.734C286.162 85.538 286.745 85.44 287.417 85.44C287.921 85.44 288.43 85.496 288.943 85.608C289.457 85.72 289.881 85.8787 290.217 86.084L289.545 87.414C289.191 87.1993 288.831 87.0547 288.467 86.98C288.113 86.896 287.758 86.854 287.403 86.854C286.871 86.854 286.475 86.9333 286.213 87.092C285.961 87.2507 285.835 87.4513 285.835 87.694C285.835 87.918 285.919 88.086 286.087 88.198C286.255 88.31 286.475 88.3987 286.745 88.464C287.016 88.5293 287.315 88.5853 287.641 88.632C287.977 88.6693 288.309 88.73 288.635 88.814C288.962 88.898 289.261 89.0147 289.531 89.164C289.811 89.304 290.035 89.5047 290.203 89.766C290.371 90.0273 290.455 90.368 290.455 90.788C290.455 91.2547 290.315 91.6607 290.035 92.006C289.765 92.3513 289.377 92.622 288.873 92.818C288.369 93.0047 287.767 93.098 287.067 93.098Z" fill="#474747"/>
<path d="M101.431 73.11V56.09H110.171C111.29 56.09 112.225 56.274 112.977 56.642C113.728 57.01 114.295 57.5083 114.679 58.137C115.062 58.7657 115.254 59.471 115.254 60.253C115.254 61.2803 114.985 62.093 114.449 62.691C113.912 63.2737 113.299 63.6647 112.609 63.864V64.071C113.053 64.163 113.536 64.3623 114.058 64.669C114.594 64.9757 115.047 65.4203 115.415 66.003C115.798 66.5703 115.99 67.314 115.99 68.234C115.99 69.0467 115.798 69.8287 115.415 70.58C115.031 71.316 114.426 71.9217 113.598 72.397C112.785 72.8723 111.704 73.11 110.355 73.11H101.431ZM109.251 59.747H105.847V62.714H109.251C109.833 62.714 110.27 62.5837 110.562 62.323C110.853 62.047 110.999 61.679 110.999 61.219C110.999 60.7743 110.853 60.4217 110.562 60.161C110.27 59.885 109.833 59.747 109.251 59.747ZM109.573 66.003H105.847V69.453H109.573C110.247 69.453 110.746 69.292 111.068 68.97C111.39 68.648 111.551 68.2263 111.551 67.705C111.551 67.1837 111.39 66.7697 111.068 66.463C110.746 66.1563 110.247 66.003 109.573 66.003ZM126.127 73.34C124.655 73.34 123.367 73.0947 122.263 72.604C121.159 72.098 120.239 71.431 119.503 70.603C118.767 69.7597 118.207 68.8167 117.824 67.774C117.456 66.7313 117.272 65.6657 117.272 64.577C117.272 63.4883 117.456 62.4303 117.824 61.403C118.207 60.3603 118.767 59.425 119.503 58.597C120.239 57.769 121.159 57.1097 122.263 56.619C123.367 56.113 124.655 55.86 126.127 55.86C127.599 55.86 128.887 56.113 129.991 56.619C131.095 57.1097 132.015 57.769 132.751 58.597C133.502 59.425 134.062 60.3603 134.43 61.403C134.798 62.4303 134.982 63.4883 134.982 64.577C134.982 65.6657 134.798 66.7313 134.43 67.774C134.062 68.8167 133.502 69.7597 132.751 70.603C132.015 71.431 131.095 72.098 129.991 72.604C128.887 73.0947 127.599 73.34 126.127 73.34ZM126.127 69.407C127.078 69.407 127.867 69.177 128.496 68.717C129.125 68.2417 129.592 67.636 129.899 66.9C130.221 66.1487 130.382 65.3743 130.382 64.577C130.382 63.7797 130.221 63.013 129.899 62.277C129.592 61.541 129.125 60.943 128.496 60.483C127.867 60.0077 127.078 59.77 126.127 59.77C125.192 59.77 124.41 60.0077 123.781 60.483C123.152 60.943 122.677 61.541 122.355 62.277C122.048 63.013 121.895 63.7797 121.895 64.577C121.895 65.3743 122.048 66.1487 122.355 66.9C122.677 67.636 123.152 68.2417 123.781 68.717C124.41 69.177 125.192 69.407 126.127 69.407ZM145.219 73.34C143.747 73.34 142.459 73.0947 141.355 72.604C140.251 72.098 139.331 71.431 138.595 70.603C137.859 69.7597 137.299 68.8167 136.916 67.774C136.548 66.7313 136.364 65.6657 136.364 64.577C136.364 63.4883 136.548 62.4303 136.916 61.403C137.299 60.3603 137.859 59.425 138.595 58.597C139.331 57.769 140.251 57.1097 141.355 56.619C142.459 56.113 143.747 55.86 145.219 55.86C146.691 55.86 147.979 56.113 149.083 56.619C150.187 57.1097 151.107 57.769 151.843 58.597C152.594 59.425 153.154 60.3603 153.522 61.403C153.89 62.4303 154.074 63.4883 154.074 64.577C154.074 65.6657 153.89 66.7313 153.522 67.774C153.154 68.8167 152.594 69.7597 151.843 70.603C151.107 71.431 150.187 72.098 149.083 72.604C147.979 73.0947 146.691 73.34 145.219 73.34ZM145.219 69.407C146.169 69.407 146.959 69.177 147.588 68.717C148.216 68.2417 148.684 67.636 148.991 66.9C149.313 66.1487 149.474 65.3743 149.474 64.577C149.474 63.7797 149.313 63.013 148.991 62.277C148.684 61.541 148.216 60.943 147.588 60.483C146.959 60.0077 146.169 59.77 145.219 59.77C144.283 59.77 143.501 60.0077 142.873 60.483C142.244 60.943 141.769 61.541 141.447 62.277C141.14 63.013 140.987 63.7797 140.987 64.577C140.987 65.3743 141.14 66.1487 141.447 66.9C141.769 67.636 142.244 68.2417 142.873 68.717C143.501 69.177 144.283 69.407 145.219 69.407ZM160.026 73.11V59.908H154.874V56.09H169.594V59.908H164.442V73.11H160.026ZM179.086 73.34C177.645 73.34 176.38 73.0947 175.291 72.604C174.202 72.098 173.298 71.431 172.577 70.603C171.856 69.7597 171.312 68.8167 170.944 67.774C170.576 66.7313 170.392 65.6657 170.392 64.577C170.392 63.4883 170.576 62.4303 170.944 61.403C171.312 60.3603 171.856 59.425 172.577 58.597C173.298 57.769 174.202 57.1097 175.291 56.619C176.38 56.113 177.645 55.86 179.086 55.86C180.313 55.86 181.363 56.0133 182.237 56.32C183.111 56.6267 183.839 57.0253 184.422 57.516C185.005 57.9913 185.465 58.505 185.802 59.057C186.155 59.5937 186.415 60.1073 186.584 60.598C186.768 61.0733 186.883 61.4643 186.929 61.771C186.99 62.0777 187.021 62.231 187.021 62.231H182.651C182.651 62.231 182.613 62.1083 182.536 61.863C182.459 61.6177 182.306 61.334 182.076 61.012C181.846 60.6747 181.493 60.3833 181.018 60.138C180.543 59.8927 179.914 59.77 179.132 59.77C178.212 59.77 177.438 60.0077 176.809 60.483C176.196 60.943 175.736 61.541 175.429 62.277C175.122 63.013 174.969 63.7797 174.969 64.577C174.969 65.3743 175.122 66.141 175.429 66.877C175.736 67.613 176.196 68.2187 176.809 68.694C177.438 69.1693 178.212 69.407 179.132 69.407C179.914 69.407 180.543 69.2843 181.018 69.039C181.493 68.7937 181.846 68.51 182.076 68.188C182.306 67.866 182.459 67.5823 182.536 67.337C182.613 67.0917 182.651 66.969 182.651 66.969H187.021C187.021 66.969 186.99 67.1223 186.929 67.429C186.883 67.7357 186.768 68.1343 186.584 68.625C186.415 69.1003 186.155 69.614 185.802 70.166C185.465 70.7027 185.005 71.2163 184.422 71.707C183.839 72.1823 183.111 72.5733 182.237 72.88C181.363 73.1867 180.313 73.34 179.086 73.34ZM187.255 73.11L192.913 56.09H198.87L204.528 73.11H199.928L199.031 70.258H192.752L191.855 73.11H187.255ZM193.925 66.486H197.858L195.903 60.207L193.925 66.486ZM206.368 73.11V56.09H212.348L215.499 63.864L218.834 56.09H224.584V73.11H220.214V62.967L217.5 69.384H213.452L210.738 62.921V73.11H206.368ZM227.347 73.11V56.09H235.006C236.462 56.09 237.674 56.3737 238.64 56.941C239.606 57.493 240.326 58.206 240.802 59.08C241.292 59.954 241.538 60.874 241.538 61.84C241.538 62.806 241.292 63.7337 240.802 64.623C240.326 65.497 239.606 66.2177 238.64 66.785C237.674 67.337 236.462 67.613 235.006 67.613H231.763V73.11H227.347ZM234.983 59.931H231.763V63.795H234.983C235.688 63.795 236.209 63.5957 236.547 63.197C236.899 62.783 237.076 62.3383 237.076 61.863C237.076 61.3723 236.899 60.9277 236.547 60.529C236.209 60.1303 235.688 59.931 234.983 59.931ZM250.281 73.34C249.101 73.34 248.089 73.202 247.245 72.926C246.417 72.65 245.727 72.2973 245.175 71.868C244.639 71.4387 244.209 70.9787 243.887 70.488C243.565 69.9973 243.328 69.5373 243.174 69.108C243.021 68.6787 242.921 68.326 242.875 68.05C242.829 67.774 242.806 67.636 242.806 67.636H247.268C247.268 67.636 247.299 67.7433 247.36 67.958C247.422 68.1727 247.552 68.4257 247.751 68.717C247.966 68.993 248.288 69.2383 248.717 69.453C249.147 69.6677 249.729 69.775 250.465 69.775C251.37 69.775 251.999 69.6063 252.351 69.269C252.719 68.9163 252.903 68.5407 252.903 68.142C252.903 67.774 252.765 67.4827 252.489 67.268C252.229 67.038 251.769 66.8693 251.109 66.762L248.832 66.394C247.851 66.2253 246.923 65.957 246.049 65.589C245.175 65.221 244.462 64.692 243.91 64.002C243.374 63.312 243.105 62.4073 243.105 61.288C243.105 60.2147 243.374 59.2717 243.91 58.459C244.462 57.6463 245.244 57.01 246.256 56.55C247.268 56.09 248.472 55.86 249.867 55.86C250.956 55.86 251.884 55.9903 252.65 56.251C253.417 56.4963 254.053 56.826 254.559 57.24C255.065 57.6387 255.472 58.0603 255.778 58.505C256.085 58.9497 256.315 59.379 256.468 59.793C256.622 60.1917 256.721 60.5213 256.767 60.782C256.813 61.0273 256.836 61.15 256.836 61.15H252.489C252.489 61.15 252.459 61.0657 252.397 60.897C252.351 60.713 252.236 60.5137 252.052 60.299C251.868 60.069 251.592 59.8697 251.224 59.701C250.872 59.517 250.389 59.425 249.775 59.425C249.193 59.425 248.725 59.5093 248.372 59.678C248.035 59.8467 247.79 60.0537 247.636 60.299C247.498 60.5443 247.429 60.7897 247.429 61.035C247.429 61.4797 247.636 61.8093 248.05 62.024C248.48 62.2233 249.001 62.3767 249.614 62.484L252.006 62.875C252.957 63.0283 253.831 63.3043 254.628 63.703C255.441 64.0863 256.093 64.623 256.583 65.313C257.074 65.9877 257.319 66.8387 257.319 67.866C257.319 68.924 257.043 69.867 256.491 70.695C255.939 71.523 255.142 72.1747 254.099 72.65C253.057 73.11 251.784 73.34 250.281 73.34Z" fill="#12181E"/>
<path d="M264.587 73.11V56.09H269.003V62.484H274.615V56.09H279.031V73.11H274.615V66.256H269.003V73.11H264.587ZM288.991 73.34C288.117 73.34 287.251 73.2173 286.392 72.972C285.533 72.7267 284.759 72.328 284.069 71.776C283.379 71.224 282.827 70.4957 282.413 69.591C281.999 68.671 281.792 67.544 281.792 66.21V56.09H286.208V66.21C286.208 67.038 286.43 67.7433 286.875 68.326C287.32 68.9087 288.025 69.2 288.991 69.2C289.957 69.2 290.662 68.9087 291.107 68.326C291.552 67.7433 291.774 67.038 291.774 66.21V56.09H296.19V66.21C296.19 67.544 295.983 68.671 295.569 69.591C295.155 70.4957 294.603 71.224 293.913 71.776C293.223 72.328 292.449 72.7267 291.59 72.972C290.731 73.2173 289.865 73.34 288.991 73.34ZM298.952 73.11V56.09H307.692C308.812 56.09 309.747 56.274 310.498 56.642C311.25 57.01 311.817 57.5083 312.2 58.137C312.584 58.7657 312.775 59.471 312.775 60.253C312.775 61.2803 312.507 62.093 311.97 62.691C311.434 63.2737 310.82 63.6647 310.13 63.864V64.071C310.575 64.163 311.058 64.3623 311.579 64.669C312.116 64.9757 312.568 65.4203 312.936 66.003C313.32 66.5703 313.511 67.314 313.511 68.234C313.511 69.0467 313.32 69.8287 312.936 70.58C312.553 71.316 311.947 71.9217 311.119 72.397C310.307 72.8723 309.226 73.11 307.876 73.11H298.952ZM306.772 59.747H303.368V62.714H306.772C307.355 62.714 307.792 62.5837 308.083 62.323C308.375 62.047 308.52 61.679 308.52 61.219C308.52 60.7743 308.375 60.4217 308.083 60.161C307.792 59.885 307.355 59.747 306.772 59.747ZM307.094 66.003H303.368V69.453H307.094C307.769 69.453 308.267 69.292 308.589 68.97C308.911 68.648 309.072 68.2263 309.072 67.705C309.072 67.1837 308.911 66.7697 308.589 66.463C308.267 66.1563 307.769 66.003 307.094 66.003Z" fill="#27AC1F"/>
</svg>
